<svg width="65" height="74" viewBox="0 0 65 74" fill="none" xmlns="http://www.w3.org/2000/svg">
<path fill-rule="evenodd" clip-rule="evenodd" d="M64.8165 42.4277C64.8165 45.2858 63.0558 47.9268 60.1977 49.3559L37.4353 60.7371C34.5772 62.1662 31.0559 62.1662 28.1978 60.7371L5.43544 49.3559C2.57732 47.9268 0.81665 45.2858 0.81665 42.4277V53.9747C0.81665 56.8328 2.57732 59.4738 5.43544 60.9029L28.1978 72.2841C31.0559 73.7132 34.5772 73.7132 37.4353 72.2841L60.1977 60.9029C63.0558 59.4738 64.8165 56.8328 64.8165 53.9747V42.4277Z" fill="url(#paint0_linear_17239_4960)"/>
<path fill-rule="evenodd" clip-rule="evenodd" d="M0.81665 19.6648C0.81665 16.8067 2.57732 14.1657 5.43544 12.7367L28.1978 1.35548C31.0559 -0.0735735 34.5772 -0.0735725 37.4353 1.35548L60.1977 12.7367C63.0558 14.1657 64.8165 16.8067 64.8165 19.6648V31.2118C64.8165 28.3537 63.0558 25.7127 60.1977 24.2836L37.4353 12.9025C34.5772 11.4734 31.0559 11.4734 28.1978 12.9025L5.43544 24.2836C2.57732 25.7127 0.81665 28.3537 0.81665 31.2118V19.6648Z" fill="url(#paint1_linear_17239_4960)"/>
<path d="M28.1978 1.35548C31.0559 -0.0735735 34.5772 -0.0735725 37.4353 1.35548L60.1977 12.7367C63.0558 14.1657 64.8165 16.8067 64.8165 19.6648V42.4272C64.8165 45.2853 63.0558 47.9263 60.1977 49.3554L37.4353 60.7365C34.5772 62.1656 31.0559 62.1656 28.1978 60.7365L5.43544 49.3554C2.57732 47.9263 0.81665 45.2853 0.81665 42.4272V19.6648C0.81665 16.8067 2.57732 14.1657 5.43544 12.7367L28.1978 1.35548Z" fill="url(#paint2_linear_17239_4960)"/>
<path fill-rule="evenodd" clip-rule="evenodd" d="M54.1499 32.3794C54.1499 34.2848 52.9761 36.0455 51.0707 36.9982L35.8959 44.5856C33.9905 45.5384 31.6429 45.5384 29.7375 44.5856L14.5626 36.9982C12.6572 36.0455 11.4834 34.2848 11.4834 32.3794V40.0774C11.4834 41.9828 12.6572 43.7434 14.5626 44.6962L29.7375 52.2836C31.6429 53.2363 33.9905 53.2363 35.8959 52.2836L51.0707 44.6962C52.9761 43.7434 54.1499 41.9828 54.1499 40.0774V32.3794Z" fill="url(#paint3_linear_17239_4960)"/>
<path fill-rule="evenodd" clip-rule="evenodd" d="M11.4834 17.2045C11.4834 15.2991 12.6572 13.5384 14.5626 12.5857L29.7375 4.99822C31.6429 4.04551 33.9905 4.04552 35.8959 4.99822L51.0707 12.5857C52.9761 13.5384 54.1499 15.2991 54.1499 17.2045V24.9024C54.1499 22.997 52.9761 21.2364 51.0707 20.2836L35.8959 12.6962C33.9905 11.7435 31.6429 11.7435 29.7375 12.6962L14.5626 20.2836C12.6572 21.2364 11.4834 22.997 11.4834 24.9024V17.2045Z" fill="url(#paint4_linear_17239_4960)"/>
<path d="M29.7375 4.99822C31.6429 4.04551 33.9905 4.04552 35.8959 4.99822L51.0707 12.5857C52.9761 13.5384 54.1499 15.2991 54.1499 17.2045V32.3793C54.1499 34.2847 52.9761 36.0454 51.0707 36.9981L35.8959 44.5856C33.9905 45.5383 31.6429 45.5383 29.7375 44.5856L14.5626 36.9981C12.6572 36.0454 11.4834 34.2847 11.4834 32.3793V17.2045C11.4834 15.2991 12.6572 13.5384 14.5626 12.5857L29.7375 4.99822Z" fill="url(#paint5_linear_17239_4960)"/>
<defs>
<linearGradient id="paint0_linear_17239_4960" x1="32.8166" y1="42.4277" x2="32.8166" y2="73.3559" gradientUnits="userSpaceOnUse">
<stop stop-color="#CCCCCC"/>
<stop offset="1" stop-color="#E2E2E2"/>
</linearGradient>
<linearGradient id="paint1_linear_17239_4960" x1="32.8166" y1="0.283691" x2="32.8166" y2="31.2118" gradientUnits="userSpaceOnUse">
<stop stop-color="#2E2469"/>
<stop offset="1" stop-color="#5B47CF"/>
</linearGradient>
<linearGradient id="paint2_linear_17239_4960" x1="32.8166" y1="0.283691" x2="32.8166" y2="61.8083" gradientUnits="userSpaceOnUse">
<stop stop-color="#E2E2E2"/>
<stop offset="1" stop-color="#F2F2F2"/>
</linearGradient>
<linearGradient id="paint3_linear_17239_4960" x1="32.8167" y1="32.3794" x2="32.8167" y2="52.9982" gradientUnits="userSpaceOnUse">
<stop stop-color="#CCCCCC"/>
<stop offset="1" stop-color="#E2E2E2"/>
</linearGradient>
<linearGradient id="paint4_linear_17239_4960" x1="32.8167" y1="4.28369" x2="32.8167" y2="24.9024" gradientUnits="userSpaceOnUse">
<stop stop-color="#CCCCCC"/>
<stop offset="1" stop-color="#E2E2E2"/>
</linearGradient>
<linearGradient id="paint5_linear_17239_4960" x1="32.8167" y1="4.28369" x2="32.8167" y2="45.3001" gradientUnits="userSpaceOnUse">
<stop stop-color="#CCCCCC"/>
<stop offset="1" stop-color="#E2E2E2"/>
</linearGradient>
</defs>
</svg>
